DataType=double
version=3
OpenSimVersion=4.5.2-2025-05-03-6a4c6ec41
endheader
time	q	/jointset/head_joint/q/speed
0	-0.7853981633974483	0
0.001	-0.7853898184857181	0.01668980024768597
0.002	-0.7853362681056211	0.09041081098326402
0.003	-0.7852070118383674	0.1681013639341332
0.004	-0.7850009517787448	0.2440181819572777
0.005	-0.7847191415047243	0.3196015817669162
0.006	-0.7843620920883569	0.394496256933175
0.007	-0.783930445506471	0.4687957046508415
0.008	-0.7834248063431056	0.5424812131553313
0.009000000000000001	-0.7828457838838342	0.6155620911143476
0.01	-0.782193981621131	0.6880406160012243
0.011	-0.7814699999049323	0.7599207953699246
0.012	-0.7806744353076049	0.8312061767570899
0.013	-0.779807880810316	0.9019003949786314
0.01400000000000001	-0.778870925784217	0.9720070352039825
0.01500000000000001	-0.777864156023035	1.041529667068303
0.01600000000000001	-0.7767881537629222	1.110471836043332
0.01700000000000001	-0.7756434977055872	1.178837065502563
0.01800000000000001	-0.7744307630406927	1.246628856123904
0.01900000000000001	-0.7731505214685126	1.313850685968296
0.02000000000000001	-0.7718033412225895	1.380506010399638
0.02100000000000001	-0.7703897870924475	1.446598262054484
0.02200000000000001	-0.7689104204463366	1.51213085080922
0.02300000000000001	-0.7673657992540047	1.577107163757628
0.02400000000000001	-0.7657564781094887	1.64153056519543
0.02500000000000002	-0.7640830082539166	1.705404396612491
0.02600000000000002	-0.762345937598315	1.768731976692348
0.02700000000000002	-0.7605458107464119	1.831516601318951
0.02800000000000002	-0.7586831690174305	1.893761543590496
0.02900000000000002	-0.7567585504688646	1.955470053840187
0.03000000000000002	-0.7547724899192311	2.016645359663808
0.03100000000000002	-0.75272551897079	2.077290665953949
0.03200000000000002	-0.7506181660322288	2.137409154940765
0.03300000000000002	-0.748450956341301	2.197003986239118
0.03400000000000002	-0.7462244119874158	2.256078296901969
0.03500000000000002	-0.7439390519341706	2.314635201479884
0.03600000000000003	-0.7415953920418212	2.372677792086519
0.03700000000000003	-0.7391939450896836	2.430209138469949
0.03800000000000003	-0.736735339315218	2.486995254922206
0.03900000000000003	-0.7342249516288323	2.533772795119182
0.04000000000000003	-0.7316666784703256	2.582766042395273
0.04100000000000003	-0.7290553633448256	2.639856556290268
0.04200000000000003	-0.7263885625881863	2.693737123633257
0.04300000000000003	-0.7236680341592763	2.74731172386772
0.04400000000000003	-0.7208988867974108	2.790974826592873
0.04500000000000003	-0.7180848869130882	2.837016616000537
0.04600000000000003	-0.7152252069889945	2.882334749980661
0.04700000000000003	-0.712320196491337	2.927677607070724
0.04800000000000004	-0.7093744111943324	2.963884205271625
0.04900000000000004	-0.7063909402483987	3.003048769921266
0.05000000000000004	-0.7033639156631317	3.050991330541553
0.05100000000000004	-0.7002947225632457	3.087385649004582
0.05200000000000004	-0.6971874551624887	3.127139793577019
0.05300000000000004	-0.6940406598181703	3.166441392217786
0.05400000000000004	-0.6908543512042882	3.20616618799265
0.05500000000000004	-0.6876327250947151	3.237076250791826
0.05600000000000004	-0.6843785598017321	3.271244429720392
0.05700000000000004	-0.6810901776759017	3.305509785580954
0.05800000000000004	-0.6777716257326892	3.331583945251266
0.05900000000000005	-0.6744207292902256	3.370198657537344
0.06000000000000005	-0.6710325474748011	3.406154548719503
0.06100000000000005	-0.6676078818016679	3.443166232168585
0.06200000000000005	-0.6641506535840919	3.471279508174575
0.06300000000000004	-0.6606636382964237	3.502740250850309
0.06400000000000004	-0.6571450932733665	3.534338851400392
0.06500000000000004	-0.6535990212108351	3.557794214080717
0.06600000000000004	-0.6500276774644812	3.584882109827753
0.06700000000000005	-0.6464289989047678	3.612463724599517
0.06800000000000005	-0.6428021873530814	3.641147974505692
0.06900000000000005	-0.6391462952329325	3.670624738690915
0.07000000000000005	-0.635460562247197	3.70082957984239
0.07100000000000005	-0.6317487909414483	3.722701264338171
0.07200000000000005	-0.6280133263821936	3.748215979426937
0.07300000000000005	-0.6242521175572217	3.77418968134909
0.07400000000000005	-0.6204688680640627	3.792297212731142
0.07500000000000005	-0.6166655676403597	3.814291445352
0.07600000000000005	-0.6128399113920046	3.837008757188306
0.07700000000000005	-0.6089908824241833	3.861036775753233
0.07800000000000006	-0.6051173348035916	3.88604595006567
0.07900000000000006	-0.601218328306475	3.911954412637925
0.08000000000000006	-0.5972975021226657	3.929685218650561
0.08100000000000006	-0.5933570528893145	3.951200413712012
0.08200000000000006	-0.589394794603837	3.973303217432348
0.08300000000000006	-0.5854143079769891	3.987657002357187
0.08400000000000006	-0.5814174707588601	4.006004311803786
0.08500000000000006	-0.5774063507659116	4.016222470405574
0.08600000000000006	-0.5733782811521639	4.03990346284117
0.08700000000000006	-0.5693275504721654	4.061544493199409
0.08800000000000006	-0.5652588181390488	4.075906674481958
0.08900000000000007	-0.5611738690982233	4.093977819725358
0.09000000000000007	-0.5570704777129422	4.112791266879576
0.09100000000000007	-0.5529521047937983	4.123940802279101
0.09200000000000007	-0.5488205397195114	4.139175497849118
0.09300000000000007	-0.5446777643793276	4.146361261324363
0.09400000000000007	-0.5405255095697978	4.158134369584426
0.09500000000000007	-0.5363564361869608	4.179998316167015
0.09600000000000007	-0.5321706584541763	4.191542977915097
0.09700000000000007	-0.5279711045173721	4.207550642420554
0.09800000000000007	-0.5237552678970835	4.224108254465788
0.09900000000000007	-0.519526682552835	4.233048011838644
0.1000000000000001	-0.5152871207712474	4.24606105664924
0.1010000000000001	-0.5110385683289084	4.251029267649745
0.1020000000000001	-0.5067827532514961	4.260586267088645
0.1030000000000001	-0.5025168089429413	4.27128766043238
0.1040000000000001	-0.4982392893950704	4.283736671242067
0.1050000000000001	-0.4939486382883588	4.297550698234451
0.1060000000000001	-0.4896435470386801	4.31261687271093
0.1070000000000001	-0.4853273180310653	4.319826141062475
0.1080000000000001	-0.4810018410831985	4.331112686774811
0.1090000000000001	-0.4766691248638327	4.334304624704425
0.1100000000000001	-0.4723309373115179	4.342055299623037
0.1110000000000001	-0.4679844415215503	4.3509210371582
0.1120000000000001	-0.4636326932494128	4.352560211957926
0.1130000000000001	-0.4592726023101353	4.36760630870487
0.1140000000000001	-0.4549028743015321	4.371834283402846
0.1150000000000001	-0.4505264743034572	4.38095023101729
0.1160000000000001	-0.4461405997214141	4.39078338490812
0.1170000000000001	-0.4417485971129493	4.393206229417324
0.1180000000000001	-0.4373520471169485	4.399878111334034
0.1190000000000001	-0.43295276556784	4.398669293672749
0.1200000000000001	-0.4285523237126232	4.402198687456531
0.1210000000000001	-0.4241477116255814	4.407009710716968
0.1220000000000001	-0.4197418265665498	4.404744595454729
0.1230000000000001	-0.415331434626829	4.416023424753517
0.1240000000000001	-0.4109151105567937	4.416608803815519
0.1250000000000001	-0.4064957002882927	4.422195779885898
0.1260000000000001	-0.4020702925852561	4.428603620796454
0.1270000000000001	-0.3976421348310775	4.427695842047593
0.1280000000000001	-0.3932127170126264	4.431123714891869
0.1290000000000001	-0.388783771986046	4.426750230454886
0.1300000000000001	-0.384356794929617	4.427187752515944
0.1310000000000001	-0.3799287060710016	4.428973801857841
0.1320000000000001	-0.3754978635465488	4.432695045507474
0.1330000000000001	-0.3710625308839842	4.437954033296991
0.1340000000000001	-0.3666257083498013	4.43567475521159
0.1350000000000001	-0.3621889883963038	4.437748844544393
0.1360000000000001	-0.357749638840109	4.4409339234795
0.1370000000000001	-0.353310739769449	4.43684784798986
0.1380000000000001	-0.3488737110048993	4.437193291354056
0.1390000000000001	-0.3444402004627659	4.429811389710161
0.1400000000000001	-0.3400116306321831	4.427311860466126
0.1410000000000001	-0.3355803788141696	4.435175328880055
0.1420000000000001	-0.3311462975122433	4.432970792327859
0.1430000000000001	-0.3267120729616054	4.435461800622995
0.1440000000000001	-0.3222794494733751	4.429768648663272
0.1450000000000001	-0.3178501963511436	4.428721056738899
0.1460000000000001	-0.3134214121666705	4.428830750782264
0.1470000000000001	-0.3089961051185126	4.421766773350027
0.1480000000000001	-0.3045756085676965	4.419209750723988
0.1490000000000001	-0.3001614964047744	4.408997998502006
0.1500000000000001	-0.2957506470202729	4.412684183497633
0.1510000000000001	-0.2913369310582938	4.414731120349121
0.1520000000000001	-0.2869246228396679	4.409868680090664
0.1530000000000001	-0.2825151518731046	4.409056605268778
0.1540000000000001	-0.2781104386571551	4.400353175537743
0.1550000000000001	-0.2737120826829815	4.396342124840781
0.1560000000000001	-0.269317110150563	4.393586284286792
0.1570000000000001	-0.2649284423949866	4.383732574875544
0.1580000000000001	-0.260547338417724	4.378458736570956
0.1590000000000001	-0.256170827740134	4.374545973558766
0.1600000000000001	-0.251797281882891	4.372529088080828
0.1610000000000001	-0.2474249931448465	4.372031721209257
0.1620000000000001	-0.2430569790033015	4.363979892985501
0.1630000000000001	-0.2386948450783021	4.360271292530206
0.1640000000000001	-0.2343358671356037	4.357667922761354
0.1650000000000001	-0.2299831289238275	4.347791837229863
0.1660000000000001	-0.2256380499722642	4.342349414711939
0.1670000000000001	-0.2213022743822735	4.329185133173691
0.1680000000000001	-0.2169772176585377	4.320911707147397
0.1690000000000001	-0.2126552472752715	4.323012448260399
0.1700000000000001	-0.2083362033647745	4.315058757363619
0.1710000000000001	-0.2040227575110046	4.311816341193514
0.1720000000000001	-0.1997166373293967	4.300407426455318
0.1730000000000001	-0.1954195935958503	4.293663465624743
0.1740000000000001	-0.1911287047138723	4.288097732985467
0.1750000000000001	-0.186846957247956	4.275380655077243
0.1760000000000001	-0.182575661613471	4.267194097158061
